<?xml version="1.0" standalone="no"?>
<!DOCTYPE svg PUBLIC "-//W3C//DTD SVG 20010904//EN"
 "http://www.w3.org/TR/2001/REC-SVG-20010904/DTD/svg10.dtd">
<svg version="1.0" xmlns="http://www.w3.org/2000/svg"
 width="859.000000pt" height="406.000000pt" viewBox="0 0 859.000000 406.000000"
 preserveAspectRatio="xMidYMid meet">

<g transform="translate(0.000000,406.000000) scale(0.100000,-0.100000)"
fill="#000000" stroke="none">
<path d="M5130 3719 c-76 -23 -137 -95 -161 -190 -10 -38 -16 -48 -28 -43 -9
3 -43 8 -76 11 -52 4 -65 2 -95 -19 -19 -13 -47 -46 -62 -73 -51 -93 -90 -85
437 -85 l465 0 0 29 c0 63 -42 111 -97 111 -13 0 -29 20 -51 65 -38 77 -101
149 -153 176 -46 23 -132 32 -179 18z m158 -56 c47 -22 117 -107 143 -172 28
-71 32 -75 76 -77 33 -1 63 -23 63 -46 0 -4 -189 -8 -421 -8 l-420 0 18 31
c28 50 70 71 123 63 25 -3 57 -12 72 -20 15 -8 31 -14 35 -14 5 0 16 32 26 72
18 77 52 138 92 164 52 34 129 37 193 7z"/>
<path d="M3376 3201 c-4 -5 -4 -24 -2 -43 3 -18 8 -73 11 -123 8 -100 9 -105
32 -105 14 0 15 15 9 126 -4 70 -10 133 -13 140 -6 16 -29 19 -37 5z"/>
<path d="M3862 3050 c-60 -106 -67 -130 -37 -130 14 0 135 202 135 226 0 8 -8
14 -17 14 -12 0 -39 -36 -81 -110z"/>
<path d="M2791 3007 c-8 -10 12 -38 90 -120 97 -103 129 -126 129 -91 0 16
-186 224 -200 224 -4 0 -12 -6 -19 -13z"/>
<path d="M4804 2996 c-45 -20 -221 -147 -523 -378 -84 -65 -156 -118 -160
-118 -3 0 -17 16 -30 36 -41 59 -138 140 -220 183 -119 62 -178 75 -316 75
-107 0 -129 -3 -206 -30 -274 -97 -449 -339 -449 -623 0 -107 17 -190 55 -276
14 -32 24 -60 22 -62 -10 -9 -243 -120 -317 -150 -142 -57 -537 -143 -594
-129 -12 3 -105 8 -207 12 l-186 7 -124 -68 c-157 -86 -387 -226 -462 -281
-58 -42 -261 -249 -347 -354 -59 -72 -302 -360 -403 -477 l-80 -93 -52 0 c-37
0 -55 -4 -58 -15 -4 -8 -2 -17 3 -20 13 -8 8297 -8 8310 0 5 3 7 12 3 20 -4
11 -21 15 -60 15 -47 0 -56 3 -60 20 -10 38 -69 154 -179 351 -59 107 -132
246 -161 309 -54 114 -56 117 -207 270 -85 85 -249 266 -365 403 -117 136
-218 247 -225 247 -8 0 -121 -55 -251 -121 l-237 -122 -96 7 c-106 7 -162 27
-203 72 -15 16 -67 81 -115 145 -49 64 -213 246 -364 404 -452 473 -743 694
-972 740 -93 18 -123 18 -164 1z m127 -59 c142 -86 402 -303 473 -396 73 -95
76 -104 76 -254 0 -294 57 -587 100 -517 4 6 1 32 -6 57 -26 86 -45 224 -48
353 -3 120 3 159 19 111 14 -44 141 -242 277 -433 118 -165 318 -483 330 -526
2 -5 -37 -37 -87 -69 -49 -33 -137 -97 -195 -141 l-105 -81 -5 97 c-5 98 -13
126 -33 119 -8 -2 -11 -46 -12 -131 l0 -128 -40 -34 c-22 -19 -122 -101 -222
-182 -167 -134 -212 -182 -170 -182 7 0 93 66 192 146 379 306 485 391 561
445 71 51 297 185 400 237 l40 21 -32 -67 c-18 -37 -47 -98 -64 -135 -29 -62
-39 -73 -100 -112 -116 -76 -208 -195 -150 -195 11 0 20 4 20 9 0 20 88 106
155 151 80 54 97 77 146 195 39 97 75 152 132 200 46 40 601 328 611 318 3 -4
6 -15 6 -26 0 -11 16 -67 35 -125 34 -99 97 -229 237 -485 68 -124 114 -246
153 -402 34 -138 61 -187 114 -209 29 -11 46 -27 61 -55 20 -41 54 -61 72 -43
8 8 3 20 -16 42 -14 17 -26 36 -26 40 0 15 -42 50 -60 50 -38 0 -69 53 -100
170 -16 63 -30 119 -30 123 0 4 35 -19 78 -52 76 -57 168 -165 248 -291 74
-116 149 -218 183 -247 l36 -33 -1212 0 -1212 0 135 197 c75 109 143 206 151
215 8 9 49 24 91 33 166 37 324 110 533 246 148 96 173 119 205 182 18 34 40
57 79 83 30 19 55 39 55 45 0 21 -31 19 -72 -5 -55 -32 -81 -59 -105 -111 -20
-44 -65 -81 -220 -180 -184 -117 -375 -202 -496 -220 -25 -4 -58 -15 -74 -25
-18 -11 -92 -108 -182 -239 l-153 -221 -599 0 -598 0 63 127 c81 162 116 273
123 383 5 70 11 97 40 155 74 149 187 296 323 420 62 57 78 84 54 92 -15 5
-135 -100 -199 -174 -79 -91 -114 -138 -165 -223 l-48 -80 -6 45 c-9 56 8 181
40 299 13 50 35 138 48 196 39 169 40 231 4 217 -10 -3 -17 -27 -21 -74 -3
-38 -29 -158 -58 -268 l-53 -200 2 -210 c1 -176 -1 -222 -17 -290 -23 -94 -70
-210 -135 -329 l-47 -86 -1111 0 c-1055 0 -1110 1 -1097 17 8 10 56 66 107
125 136 157 200 211 291 248 42 17 95 40 118 51 53 27 212 190 440 450 257
294 314 339 630 494 132 64 208 108 239 137 110 101 517 679 499 708 -14 23
-36 5 -81 -67 -129 -210 -340 -499 -429 -589 -37 -38 -83 -71 -120 -88 -173
-81 -339 -168 -407 -214 -109 -74 -179 -141 -371 -360 -93 -107 -219 -245
-279 -307 -100 -104 -115 -116 -186 -145 -177 -73 -220 -107 -417 -335 l-109
-125 -787 0 -787 0 55 132 c30 73 60 139 67 146 7 7 71 35 141 63 71 27 140
59 154 72 14 13 68 50 118 82 51 33 93 65 93 71 0 27 -23 24 -71 -6 -27 -18
-51 -31 -53 -29 -2 2 16 37 40 78 34 58 41 78 32 88 -16 19 -24 10 -106 -127
-40 -67 -82 -124 -99 -136 -17 -11 -79 -38 -137 -58 -58 -21 -117 -47 -130
-57 -16 -12 -48 -75 -87 -169 l-63 -150 -120 0 c-112 0 -118 1 -104 18 8 9 77
91 154 182 77 91 189 224 248 295 60 72 166 189 236 260 112 114 144 140 266
216 76 48 209 126 294 174 l155 87 105 -6 c58 -3 127 -6 153 -6 l48 0 -51 -99
c-63 -123 -121 -213 -171 -268 -64 -69 -212 -274 -248 -343 -19 -36 -50 -81
-69 -100 -57 -58 -192 -242 -192 -262 0 -38 30 -15 96 75 38 50 125 151 194
222 69 72 155 166 190 209 40 49 130 134 235 221 94 78 212 180 263 227 108
98 206 158 335 203 178 63 348 144 562 270 77 45 212 124 300 175 353 206 677
412 805 511 155 120 463 351 530 396 25 17 57 33 70 36 14 2 28 5 31 6 3 0 30
-14 60 -32z m-1184 -212 c104 -33 218 -107 284 -187 27 -32 49 -63 49 -68 0
-14 -569 -359 -1018 -617 l-42 -24 -25 53 c-63 136 -71 304 -21 453 109 320
450 493 773 390z"/>
<path d="M4196 2843 c-72 -84 -92 -123 -63 -123 19 0 167 171 167 192 0 36
-30 16 -104 -69z"/>
<path d="M1607 2636 c-52 -19 -106 -58 -141 -102 -31 -39 -86 -142 -86 -161 0
-7 -10 -15 -22 -17 -13 -3 -36 -7 -51 -11 -37 -7 -68 -59 -65 -105 l3 -35 505
0 505 0 3 22 c4 31 -31 95 -72 131 -50 44 -110 52 -203 26 -19 -5 -23 1 -38
51 -28 97 -85 169 -157 199 -45 19 -130 20 -181 2z m161 -42 c76 -31 135 -117
148 -217 8 -56 20 -65 62 -43 16 8 51 18 78 21 39 5 56 2 82 -14 34 -22 75
-79 66 -93 -3 -4 -211 -7 -462 -5 -451 2 -457 2 -454 22 5 29 31 45 74 45 28
0 40 5 45 18 42 120 141 247 213 269 51 16 106 15 148 -3z"/>
<path d="M7273 2528 c-102 -17 -181 -86 -240 -207 -36 -74 -40 -79 -76 -85
-21 -3 -49 -17 -61 -29 -25 -25 -43 -94 -28 -109 10 -10 995 -13 1012 -3 25
16 -43 133 -97 166 -29 18 -45 21 -101 16 -37 -2 -74 -8 -82 -11 -11 -5 -19 8
-32 51 -46 157 -157 236 -295 211z m155 -71 c52 -34 89 -97 107 -182 7 -37 16
-69 19 -72 3 -3 21 2 41 11 54 26 126 31 162 12 27 -13 73 -71 73 -90 0 -3
-207 -6 -460 -6 -472 0 -475 0 -452 37 11 18 57 32 81 26 17 -4 24 2 37 33 51
126 112 206 186 243 61 30 151 25 206 -12z"/>
<path d="M2474 2518 c-12 -19 19 -32 145 -63 89 -21 124 -26 132 -18 21 21 -1
31 -131 62 -150 36 -137 34 -146 19z"/>
<path d="M2616 1984 c-102 -13 -129 -25 -109 -45 9 -9 43 -8 133 4 120 15 149
25 136 46 -9 13 -33 13 -160 -5z"/>
</g>
</svg>
